<?xml version="1.0" standalone="no"?>
<!DOCTYPE svg PUBLIC "-//W3C//DTD SVG 20010904//EN"
 "http://www.w3.org/TR/2001/REC-SVG-20010904/DTD/svg10.dtd">
<svg version="1.0" xmlns="http://www.w3.org/2000/svg"
 width="1280.000000pt" height="535.000000pt" viewBox="0 0 1280.000000 535.000000"
 preserveAspectRatio="xMidYMid meet">

<g transform="translate(0.000000,535.000000) scale(0.100000,-0.100000)"
fill="#000000" stroke="none">
<path d="M0 4940 c0 -225 2 -410 4 -410 2 0 29 11 59 25 72 31 174 49 248 42
47 -4 61 -2 74 12 21 24 119 71 161 78 34 6 34 6 34 58 0 109 64 211 164 262
69 36 179 38 246 6 63 -31 117 -85 144 -144 23 -48 23 -49 41 -29 29 32 135
78 196 85 115 14 250 -46 317 -139 18 -24 32 -49 32 -55 0 -18 10 -13 57 28
115 102 297 94 405 -16 73 -76 83 -102 83 -220 0 -57 1 -103 2 -103 1 0 23 14
48 32 35 25 58 33 104 36 77 6 125 -11 176 -63 82 -81 83 -214 2 -302 l-20
-22 39 11 c22 6 80 11 129 11 104 -1 188 -24 265 -73 64 -41 160 -144 184
-198 15 -32 23 -41 35 -36 51 21 94 34 102 29 5 -4 9 15 9 42 1 115 96 213
209 213 43 0 101 -23 138 -55 l37 -32 41 18 c87 40 214 9 271 -66 22 -30 29
-33 50 -24 38 14 126 11 174 -6 54 -19 50 -20 50 13 0 89 70 196 145 224 27 9
34 18 39 49 24 150 248 175 315 36 25 -51 26 -85 6 -134 -20 -48 -20 -48 19
-72 18 -12 44 -36 57 -55 l23 -34 38 43 c107 121 282 87 334 -64 10 -31 17
-37 52 -43 42 -7 96 -31 122 -54 13 -11 24 -11 65 2 132 41 289 -25 351 -148
22 -44 27 -48 62 -48 76 -1 166 -61 201 -134 l21 -43 47 23 c25 13 61 24 78
24 76 0 153 -47 181 -110 13 -30 22 -39 34 -34 83 35 173 -12 186 -98 6 -36 9
-39 32 -33 63 16 116 -46 92 -106 -7 -17 -24 -35 -37 -40 -14 -5 -472 -9
-1098 -9 l-1073 0 -21 -34 c-28 -44 -105 -116 -161 -149 -106 -62 -272 -73
-392 -27 -67 26 -158 97 -206 160 l-35 45 -1206 7 c-663 4 -1361 10 -1550 13
l-344 6 -68 60 -68 60 -148 -31 -148 -31 -74 26 c-84 28 -91 29 -143 14 l-38
-10 0 -1599 0 -1600 6400 0 6400 0 0 1804 c0 1636 -1 1804 -16 1810 -9 3 -38
6 -65 6 -98 0 -312 32 -437 66 -147 39 -130 46 -193 -78 -37 -74 -41 -78 -120
-122 -59 -33 -136 -62 -280 -106 -110 -33 -204 -60 -209 -60 -6 0 -97 -40
-204 -90 l-195 -90 -1153 0 -1154 0 -44 23 c-140 70 -86 277 72 277 42 0 49 3
62 29 8 15 32 43 53 61 21 19 45 50 54 69 47 103 166 147 269 100 25 -11 65
-23 88 -25 24 -2 57 -11 72 -19 38 -20 40 -19 40 13 0 41 43 124 81 156 49 41
90 56 158 56 61 0 95 -10 142 -42 l26 -17 13 42 c32 108 158 159 273 112 13
-6 17 -2 17 17 0 14 9 33 21 44 17 16 20 26 15 62 -20 146 86 274 229 276 l62
1 17 48 c22 61 61 87 132 87 58 0 94 -22 120 -71 l15 -30 39 40 c22 22 63 53
92 68 47 25 63 28 151 28 l97 0 0 48 c0 54 16 90 57 129 53 51 130 70 188 48
23 -9 33 -4 86 40 71 59 156 104 236 125 74 19 223 19 297 0 58 -15 60 -15 95
9 131 91 293 97 424 16 l47 -29 46 32 c38 26 56 32 114 35 l70 4 0 174 0 174
-6400 0 -6400 0 0 -410z"/>
</g>
</svg>
